<?xml version="1.0" encoding="utf-8"?><svg xmlns="http://www.w3.org/2000/svg" xmlns:xlink="http://www.w3.org/1999/xlink"><symbol viewBox="0 0 107.233 43.909" id="2gis" xmlns="http://www.w3.org/2000/svg"><defs><clipPath id="aa"><path d="M0 0h595.276v841.89H0z"/></clipPath></defs><g clip-path="url(#aa)" transform="matrix(1.33333 0 0 -1.33333 -603.317 105.07)"><path d="M486.806 62.337a15.8 15.8 0 01-1.097 5.75c-.186-5.898-6.433-10.466-10.1-13.489h9.181a15.862 15.862 0 012.016 7.739m-6.638 12.988a17.516 17.516 0 01-10.522 3.478c-9.476 0-17.158-7.372-17.158-16.466 0-9.094 7.682-16.466 17.158-16.466 4.341 0 8.293 1.557 11.313 4.107h-12.423l-.037 3.502c7.485 6.244 12.074 10.467 12.074 14.546 0 1.516-.602 3.429-3.309 3.429-2.144 0-4.213-1.192-3.838-6.172h-4.362c-1.092 5.774 2.181 10.36 8.425 10.36.966 0 1.863-.112 2.68-.318" fill="#afca0b"/><path d="M502.722 67.422h4.059c.138 2.963-.902 7.657-7.597 7.657-4.926 0-8.501-2.83-8.501-8.722 0-.799.035-4.927.035-7.491 0-6.391 4.615-7.79 8.5-7.79 2.325 0 5.689.5 7.25 2.131v10.187h-7.631v-3.696h3.4v-4.493c-2.568-.832-7.251-1.166-7.251 4.493v6.659c0 3.961 1.908 5.327 4.023 5.327 2.187 0 3.713-1.066 3.713-4.262m30.189-9.888c.175 9.122-10.718 6.093-10.614 11.187.034 1.797 1.249 2.963 3.226 2.963 2.115 0 3.365-1.199 3.329-4.329h3.99c.105 2.831-.588 7.658-7.18 7.658-4.093 0-7.46-1.932-7.528-6.226-.174-8.755 10.788-5.893 10.614-11.185-.07-2.164-1.7-3.129-3.538-3.129-2.15 0-3.885 1.198-3.538 4.793h-4.025c-.45-4.76 1.736-8.157 7.529-8.157 4.89 0 7.666 2.598 7.735 6.425m-18.325-6.124h-4.094v23.303h4.094zm0 0h-4.094v23.303h4.094z" fill="#3c3c3b"/></g></symbol><symbol viewBox="0 0 477.175 477.175" id="arrow" xmlns="http://www.w3.org/2000/svg"><path d="M145.188 238.575l215.5-215.5c5.3-5.3 5.3-13.8 0-19.1s-13.8-5.3-19.1 0l-225.1 225.1c-5.3 5.3-5.3 13.8 0 19.1l225.1 225c2.6 2.6 6.1 4 9.5 4s6.9-1.3 9.5-4c5.3-5.3 5.3-13.8 0-19.1l-215.4-215.5z"/></symbol><symbol viewBox="0 0 16 16" id="copy" xmlns="http://www.w3.org/2000/svg"><path fill="#444" d="M8 1.5c3.6 0 6.5 2.9 6.5 6.5s-2.9 6.5-6.5 6.5S1.5 11.6 1.5 8 4.4 1.5 8 1.5zM8 0C3.6 0 0 3.6 0 8s3.6 8 8 8 8-3.6 8-8-3.6-8-8-8z"/><path fill="#444" d="M9.9 10.3c-.5.4-1.2.7-1.9.7-1.7 0-3-1.3-3-3s1.3-3 3-3c.8 0 1.6.3 2.1.9l1.1-1.1c-.8-.8-2-1.3-3.2-1.3-2.5 0-4.5 2-4.5 4.5s2 4.5 4.5 4.5c1.1 0 2-.4 2.8-1l-.9-1.2z"/></symbol><symbol viewBox="0 0 512 512" id="facebook" xmlns="http://www.w3.org/2000/svg"><path d="M75 512h167V330h-60v-60h60v-75c0-41.355 33.645-75 75-75h75v60h-60c-16.543 0-30 13.457-30 30v60h87.293l-10 60H302v182h135c41.355 0 75-33.645 75-75V75c0-41.355-33.645-75-75-75H75C33.645 0 0 33.645 0 75v362c0 41.355 33.645 75 75 75zM30 75c0-24.813 20.188-45 45-45h362c24.813 0 45 20.188 45 45v362c0 24.813-20.188 45-45 45H332V360h72.707l20-120H332v-30h90V90H317c-57.898 0-105 47.102-105 105v45h-60v120h60v122H75c-24.813 0-45-20.188-45-45zm0 0"/></symbol><symbol viewBox="0 0 512 512" id="instagram" xmlns="http://www.w3.org/2000/svg"><path d="M352 0H160C71.648 0 0 71.648 0 160v192c0 88.352 71.648 160 160 160h192c88.352 0 160-71.648 160-160V160C512 71.648 440.352 0 352 0zm112 352c0 61.76-50.24 112-112 112H160c-61.76 0-112-50.24-112-112V160C48 98.24 98.24 48 160 48h192c61.76 0 112 50.24 112 112v192z"/><path d="M256 128c-70.688 0-128 57.312-128 128s57.312 128 128 128 128-57.312 128-128-57.312-128-128-128zm0 208c-44.096 0-80-35.904-80-80 0-44.128 35.904-80 80-80s80 35.872 80 80c0 44.096-35.904 80-80 80z"/><circle cx="393.6" cy="118.4" r="17.056"/></symbol><symbol viewBox="0 0 395 395" id="letter" xmlns="http://www.w3.org/2000/svg"><path d="M395 320.089V74.911L258.806 197.5zm-197.5-67.407l-38.884-35L22.421 340.271h350.158L236.384 217.682zM372.579 54.729H22.421L197.5 212.318zM0 74.911v245.178L136.194 197.5z"/></symbol><symbol viewBox="0 0 473.806 473.806" id="phone" xmlns="http://www.w3.org/2000/svg"><path d="M374.456 293.506c-9.7-10.1-21.4-15.5-33.8-15.5-12.3 0-24.1 5.3-34.2 15.4l-31.6 31.5c-2.6-1.4-5.2-2.7-7.7-4-3.6-1.8-7-3.5-9.9-5.3-29.6-18.8-56.5-43.3-82.3-75-12.5-15.8-20.9-29.1-27-42.6 8.2-7.5 15.8-15.3 23.2-22.8 2.8-2.8 5.6-5.7 8.4-8.5 21-21 21-48.2 0-69.2l-27.3-27.3c-3.1-3.1-6.3-6.3-9.3-9.5-6-6.2-12.3-12.6-18.8-18.6-9.7-9.6-21.3-14.7-33.5-14.7s-24 5.1-34 14.7l-.2.2-34 34.3c-12.8 12.8-20.1 28.4-21.7 46.5-2.4 29.2 6.2 56.4 12.8 74.2 16.2 43.7 40.4 84.2 76.5 127.6 43.8 52.3 96.5 93.6 156.7 122.7 23 10.9 53.7 23.8 88 26 2.1.1 4.3.2 6.3.2 23.1 0 42.5-8.3 57.7-24.8.1-.2.3-.3.4-.5 5.2-6.3 11.2-12 17.5-18.1 4.3-4.1 8.7-8.4 13-12.9 9.9-10.3 15.1-22.3 15.1-34.6 0-12.4-5.3-24.3-15.4-34.3l-54.9-55.1zm35.8 105.3c-.1 0-.1.1 0 0-3.9 4.2-7.9 8-12.2 12.2-6.5 6.2-13.1 12.7-19.3 20-10.1 10.8-22 15.9-37.6 15.9-1.5 0-3.1 0-4.6-.1-29.7-1.9-57.3-13.5-78-23.4-56.6-27.4-106.3-66.3-147.6-115.6-34.1-41.1-56.9-79.1-72-119.9-9.3-24.9-12.7-44.3-11.2-62.6 1-11.7 5.5-21.4 13.8-29.7l34.1-34.1c4.9-4.6 10.1-7.1 15.2-7.1 6.3 0 11.4 3.8 14.6 7l.3.3c6.1 5.7 11.9 11.6 18 17.9 3.1 3.2 6.3 6.4 9.5 9.7l27.3 27.3c10.6 10.6 10.6 20.4 0 31-2.9 2.9-5.7 5.8-8.6 8.6-8.4 8.6-16.4 16.6-25.1 24.4-.2.2-.4.3-.5.5-8.6 8.6-7 17-5.2 22.7l.3.9c7.1 17.2 17.1 33.4 32.3 52.7l.1.1c27.6 34 56.7 60.5 88.8 80.8 4.1 2.6 8.3 4.7 12.3 6.7 3.6 1.8 7 3.5 9.9 5.3.4.2.8.5 1.2.7 3.4 1.7 6.6 2.5 9.9 2.5 8.3 0 13.5-5.2 15.2-6.9l34.2-34.2c3.4-3.4 8.8-7.5 15.1-7.5 6.2 0 11.3 3.9 14.4 7.3l.2.2 55.1 55.1c10.3 10.2 10.3 20.7.1 31.3zm-154.2-286.1c26.2 4.4 50 16.8 69 35.8s31.3 42.8 35.8 69c1.1 6.6 6.8 11.2 13.3 11.2.8 0 1.5-.1 2.3-.2 7.4-1.2 12.3-8.2 11.1-15.6-5.4-31.7-20.4-60.6-43.3-83.5s-51.8-37.9-83.5-43.3c-7.4-1.2-14.3 3.7-15.6 11s3.5 14.4 10.9 15.6zm217.2 96.3c-8.9-52.2-33.5-99.7-71.3-137.5s-85.3-62.4-137.5-71.3c-7.3-1.3-14.2 3.7-15.5 11-1.2 7.4 3.7 14.3 11.1 15.6 46.6 7.9 89.1 30 122.9 63.7 33.8 33.8 55.8 76.3 63.7 122.9 1.1 6.6 6.8 11.2 13.3 11.2.8 0 1.5-.1 2.3-.2 7.3-1.1 12.3-8.1 11-15.4z"/></symbol><symbol viewBox="0 0 512 512" id="point" xmlns="http://www.w3.org/2000/svg"><path d="M256 0C156.748 0 76 80.748 76 180c0 33.534 9.289 66.26 26.869 94.652l142.885 230.257A15 15 0 00258.499 512h.119a14.997 14.997 0 0012.75-7.292L410.611 272.22C427.221 244.428 436 212.539 436 180 436 80.748 355.252 0 256 0zm128.866 256.818L258.272 468.186l-129.905-209.34C113.734 235.214 105.8 207.95 105.8 180c0-82.71 67.49-150.2 150.2-150.2S406.1 97.29 406.1 180c0 27.121-7.411 53.688-21.234 76.818z"/><path d="M256 90c-49.626 0-90 40.374-90 90 0 49.309 39.717 90 90 90 50.903 0 90-41.233 90-90 0-49.626-40.374-90-90-90zm0 150.2c-33.257 0-60.2-27.033-60.2-60.2 0-33.084 27.116-60.2 60.2-60.2s60.1 27.116 60.1 60.2c0 32.683-26.316 60.2-60.1 60.2z"/></symbol><symbol viewBox="0 0 512 512" id="search" xmlns="http://www.w3.org/2000/svg"><path d="M495 466.2L377.2 348.4c29.2-35.6 46.8-81.2 46.8-130.9C424 103.5 331.5 11 217.5 11 103.4 11 11 103.5 11 217.5S103.4 424 217.5 424c49.7 0 95.2-17.5 130.8-46.7L466.1 495c8 8 20.9 8 28.9 0 8-7.9 8-20.9 0-28.8zm-277.5-83.3C126.2 382.9 52 308.7 52 217.5S126.2 52 217.5 52C308.7 52 383 126.3 383 217.5s-74.3 165.4-165.5 165.4z"/></symbol><symbol viewBox="0 0 351000 248182" shape-rendering="geometricPrecision" text-rendering="geometricPrecision" image-rendering="optimizeQuality" fill-rule="evenodd" clip-rule="evenodd" id="tripadvisor" xmlns="http://www.w3.org/2000/svg"><defs><style>.jfil0{fill:#fff}</style></defs><g id="jСлой_x0020_1"><path id="jBird_1_" class="jfil0" d="M175424 63080c-27120 0-47472 6818-67824 27170H73662s0 10176 13585 13585c-6105 8294-13585 22744-13585 33887 0 27984 19487 47472 47472 47472 15875 0 31393-8904 40704-20353l13586 20353 13585-20353c9311 11449 24830 20353 40704 20353 27985 0 47472-19488 47472-47472 0-11143-7479-25542-13585-33938 13585-3409 13585-13585 13585-13585h-33937c-20353-20352-40705-27119-67824-27119zm0 6767c33937 0 54289 20352 54289 20352-27170 0-54289 33938-54289 67875 0-33937-27120-67824-54290-67824 0-51 20352-20403 54290-20403zm-54290 33937c18724 0 33937 15163 33937 33938 0 18724-15162 33937-33937 33937s-33938-15162-33938-33937c51-18724 15214-33938 33938-33938zm108579 0c18724 0 33938 15163 33938 33938 0 18724-15163 33937-33938 33937s-33937-15213-33937-33937 15162-33938 33937-33938zm-108579 13586c-11245 0-20352 9107-20352 20352s9107 20352 20352 20352 20352-9107 20352-20352-9107-20352-20352-20352zm108579 0c-11244 0-20352 9107-20352 20352s9108 20352 20352 20352c11245 0 20353-9107 20353-20352s-9108-20352-20353-20352zm-108579 6767c7479 0 13585 6105 13585 13585 0 7479-6106 13585-13585 13585-7480 0-13585-6055-13585-13585 51-7480 6105-13585 13585-13585zm108579 0c7480 0 13585 6105 13585 13585 0 7479-6105 13585-13585 13585-7479 0-13585-6106-13585-13585 0-7480 6055-13585 13585-13585zm-108579 6767c-3765 0-6767 3053-6767 6767 0 3765 3053 6767 6767 6767 3765 0 6767-3053 6767-6767 51-3714-3002-6767-6767-6767zm108579 0c-3765 0-6767 3053-6767 6767 0 3765 3053 6767 6767 6767 3765 0 6768-3053 6768-6767s-3053-6767-6768-6767z"/></g></symbol></svg>