<svg aria-hidden="true" style="position: absolute; width: 0; height: 0; overflow: hidden;" version="1.1" xmlns="http://www.w3.org/2000/svg" xmlns:xlink="http://www.w3.org/1999/xlink">
<defs>
<symbol id="icon-gis" viewBox="0 0 32 32">
<title>gis</title>
<path d="M13.684 15.986c0-0.807-0.159-1.578-0.437-2.293-0.074 2.352-2.565 4.173-4.028 5.379h3.661c0.512-0.921 0.804-1.97 0.804-3.086zM11.037 10.807c-1.159-0.867-2.612-1.387-4.196-1.387-3.779 0-6.842 2.94-6.842 6.566s3.063 6.566 6.842 6.566c1.731 0 3.307-0.621 4.511-1.638h-4.954l-0.015-1.396c2.985-2.49 4.815-4.174 4.815-5.8 0-0.604-0.24-1.367-1.319-1.367-0.855 0-1.68 0.475-1.53 2.461h-1.739c-0.435-2.302 0.87-4.131 3.359-4.131 0.385 0 0.743 0.045 1.068 0.127z"></path>
<path d="M20.031 13.959h1.619c0.055-1.181-0.36-3.053-3.029-3.053-1.964 0-3.39 1.128-3.39 3.478 0 0.319 0.014 1.965 0.014 2.987 0 2.548 1.84 3.106 3.389 3.106 0.927 0 2.268-0.199 2.891-0.85v-4.062h-3.043v1.474h1.356v1.792c-1.024 0.332-2.891 0.465-2.891-1.792v-2.655c0-1.579 0.761-2.124 1.604-2.124 0.872 0 1.481 0.425 1.481 1.7zM32.069 17.902c0.070-3.637-4.274-2.43-4.232-4.461 0.014-0.717 0.498-1.181 1.286-1.181 0.843 0 1.342 0.478 1.327 1.726h1.591c0.042-1.129-0.234-3.054-2.863-3.054-1.633 0-2.975 0.77-3.002 2.483-0.069 3.491 4.302 2.35 4.232 4.46-0.027 0.863-0.677 1.248-1.411 1.248-0.857 0-1.549-0.478-1.411-1.911h-1.605c-0.179 1.898 0.692 3.253 3.002 3.253 1.95 0 3.057-1.036 3.084-2.562zM24.762 20.344h-1.633v-9.292h1.633zM24.762 20.344h-1.633v-9.292h1.633z"></path>
</symbol>
<symbol id="icon-arrow" viewBox="0 0 32 32">
<title>arrow</title>
<path d="M9.736 15.999l14.452-14.452c0.355-0.355 0.355-0.925 0-1.281s-0.925-0.355-1.281 0l-15.095 15.095c-0.355 0.355-0.355 0.925 0 1.281l15.095 15.089c0.174 0.174 0.409 0.268 0.637 0.268s0.463-0.087 0.637-0.268c0.355-0.355 0.355-0.925 0-1.281l-14.445-14.452z"></path>
</symbol>
<symbol id="icon-copy" viewBox="0 0 32 32">
<title>copy</title>
<path d="M16 3c7.2 0 13 5.8 13 13s-5.8 13-13 13-13-5.8-13-13 5.8-13 13-13zM16 0c-8.8 0-16 7.2-16 16s7.2 16 16 16 16-7.2 16-16-7.2-16-16-16v0z"></path>
<path d="M19.8 20.6c-1 0.8-2.4 1.4-3.8 1.4-3.4 0-6-2.6-6-6s2.6-6 6-6c1.6 0 3.2 0.6 4.2 1.8l2.2-2.2c-1.6-1.6-4-2.6-6.4-2.6-5 0-9 4-9 9s4 9 9 9c2.2 0 4-0.8 5.6-2l-1.8-2.4z"></path>
</symbol>
<symbol id="icon-facebook" viewBox="0 0 32 32">
<title>facebook</title>
<path d="M4.688 32h10.438v-11.375h-3.75v-3.75h3.75v-4.688c0-2.585 2.103-4.688 4.688-4.688h4.688v3.75h-3.75c-1.034 0-1.875 0.841-1.875 1.875v3.75h5.456l-0.625 3.75h-4.831v11.375h8.438c2.585 0 4.688-2.103 4.688-4.688v-22.625c0-2.585-2.103-4.688-4.688-4.688h-22.625c-2.585 0-4.688 2.103-4.688 4.688v22.625c0 2.585 2.103 4.688 4.688 4.688zM1.875 4.688c0-1.551 1.262-2.813 2.813-2.813h22.625c1.551 0 2.813 1.262 2.813 2.813v22.625c0 1.551-1.262 2.813-2.813 2.813h-6.563v-7.625h4.544l1.25-7.5h-5.794v-1.875h5.625v-7.5h-6.563c-3.619 0-6.563 2.944-6.563 6.563v2.813h-3.75v7.5h3.75v7.625h-8.563c-1.551 0-2.813-1.262-2.813-2.813z"></path>
</symbol>
<symbol id="icon-instagram" viewBox="0 0 32 32">
<title>instagram</title>
<path d="M22 0h-12c-5.522 0-10 4.478-10 10v12c0 5.522 4.478 10 10 10h12c5.522 0 10-4.478 10-10v-12c0-5.522-4.478-10-10-10zM29 22c0 3.86-3.14 7-7 7h-12c-3.86 0-7-3.14-7-7v-12c0-3.86 3.14-7 7-7h12c3.86 0 7 3.14 7 7v12z"></path>
<path d="M16 8c-4.418 0-8 3.582-8 8s3.582 8 8 8 8-3.582 8-8-3.582-8-8-8zM16 21c-2.756 0-5-2.244-5-5 0-2.758 2.244-5 5-5s5 2.242 5 5c0 2.756-2.244 5-5 5z"></path>
<path d="M25.666 7.4c0 0.589-0.477 1.066-1.066 1.066s-1.066-0.477-1.066-1.066c0-0.589 0.477-1.066 1.066-1.066s1.066 0.477 1.066 1.066z"></path>
</symbol>
<symbol id="icon-letter" viewBox="0 0 32 32">
<title>letter</title>
<path d="M32 25.931v-19.863l-11.033 9.931z"></path>
<path d="M16 20.47l-3.15-2.835-11.034 9.931h28.367l-11.034-9.931z"></path>
<path d="M30.184 4.434h-28.367l14.184 12.767z"></path>
<path d="M0 6.069v19.863l11.033-9.931z"></path>
</symbol>
<symbol id="icon-phone" viewBox="0 0 32 32">
<title>phone</title>
<path d="M25.29 19.823c-0.655-0.682-1.445-1.047-2.283-1.047-0.831 0-1.628 0.358-2.31 1.040l-2.134 2.127c-0.176-0.095-0.351-0.182-0.52-0.27-0.243-0.122-0.473-0.236-0.669-0.358-1.999-1.27-3.816-2.924-5.558-5.065-0.844-1.067-1.412-1.965-1.824-2.877 0.554-0.507 1.067-1.033 1.567-1.54 0.189-0.189 0.378-0.385 0.567-0.574 1.418-1.418 1.418-3.255 0-4.674l-1.844-1.844c-0.209-0.209-0.425-0.425-0.628-0.642-0.405-0.419-0.831-0.851-1.27-1.256-0.655-0.648-1.439-0.993-2.263-0.993s-1.621 0.344-2.296 0.993c-0.007 0.007-0.007 0.007-0.014 0.014l-2.296 2.317c-0.865 0.865-1.358 1.918-1.466 3.141-0.162 1.972 0.419 3.809 0.865 5.011 1.094 2.951 2.729 5.687 5.167 8.618 2.958 3.532 6.517 6.322 10.583 8.287 1.553 0.736 3.627 1.607 5.943 1.756 0.142 0.007 0.29 0.014 0.425 0.014 1.56 0 2.87-0.561 3.897-1.675 0.007-0.014 0.020-0.020 0.027-0.034 0.351-0.425 0.756-0.81 1.182-1.222 0.29-0.277 0.588-0.567 0.878-0.871 0.669-0.696 1.020-1.506 1.020-2.337 0-0.837-0.358-1.641-1.040-2.317l-3.708-3.721zM27.708 26.935c-0.007 0-0.007 0.007 0 0-0.263 0.284-0.534 0.54-0.824 0.824-0.439 0.419-0.885 0.858-1.303 1.351-0.682 0.729-1.486 1.074-2.539 1.074-0.101 0-0.209 0-0.311-0.007-2.006-0.128-3.87-0.912-5.268-1.58-3.823-1.851-7.179-4.478-9.969-7.807-2.303-2.776-3.843-5.342-4.863-8.098-0.628-1.682-0.858-2.992-0.756-4.228 0.068-0.79 0.371-1.445 0.932-2.006l2.303-2.303c0.331-0.311 0.682-0.48 1.027-0.48 0.425 0 0.77 0.257 0.986 0.473 0.007 0.007 0.013 0.013 0.020 0.020 0.412 0.385 0.804 0.783 1.216 1.209 0.209 0.216 0.425 0.432 0.642 0.655l1.844 1.844c0.716 0.716 0.716 1.378 0 2.094-0.196 0.196-0.385 0.392-0.581 0.581-0.567 0.581-1.108 1.121-1.695 1.648-0.014 0.014-0.027 0.020-0.034 0.034-0.581 0.581-0.473 1.148-0.351 1.533 0.007 0.020 0.014 0.041 0.020 0.061 0.48 1.162 1.155 2.256 2.181 3.559l0.007 0.007c1.864 2.296 3.829 4.086 5.997 5.457 0.277 0.176 0.561 0.317 0.831 0.453 0.243 0.122 0.473 0.236 0.669 0.358 0.027 0.014 0.054 0.034 0.081 0.047 0.23 0.115 0.446 0.169 0.669 0.169 0.561 0 0.912-0.351 1.027-0.466l2.31-2.31c0.23-0.23 0.594-0.507 1.020-0.507 0.419 0 0.763 0.263 0.973 0.493 0.007 0.007 0.007 0.007 0.014 0.014l3.721 3.721c0.696 0.689 0.696 1.398 0.007 2.114z"></path>
<path d="M17.294 7.612c1.77 0.297 3.377 1.135 4.66 2.418s2.114 2.891 2.418 4.66c0.074 0.446 0.459 0.756 0.898 0.756 0.054 0 0.101-0.007 0.155-0.014 0.5-0.081 0.831-0.554 0.75-1.054-0.365-2.141-1.378-4.093-2.924-5.639s-3.498-2.56-5.639-2.924c-0.5-0.081-0.966 0.25-1.054 0.743s0.236 0.973 0.736 1.054z"></path>
<path d="M31.963 14.116c-0.601-3.525-2.263-6.734-4.815-9.287s-5.761-4.214-9.287-4.815c-0.493-0.088-0.959 0.25-1.047 0.743-0.081 0.5 0.25 0.966 0.75 1.054 3.147 0.534 6.018 2.026 8.3 4.302 2.283 2.283 3.769 5.153 4.302 8.3 0.074 0.446 0.459 0.756 0.898 0.756 0.054 0 0.101-0.007 0.155-0.014 0.493-0.074 0.831-0.547 0.743-1.040z"></path>
</symbol>
<symbol id="icon-point" viewBox="0 0 32 32">
<title>point</title>
<path d="M16 0c-6.203 0-11.25 5.047-11.25 11.25 0 2.096 0.581 4.141 1.679 5.916l8.93 14.391c0.171 0.276 0.472 0.443 0.797 0.443 0.003 0 0.005 0 0.007 0 0.327-0.003 0.629-0.175 0.797-0.456l8.703-14.53c1.038-1.737 1.587-3.73 1.587-5.764 0-6.203-5.047-11.25-11.25-11.25zM24.054 16.051l-7.912 13.21-8.119-13.084c-0.915-1.477-1.41-3.181-1.41-4.928 0-5.169 4.218-9.387 9.387-9.387s9.381 4.218 9.381 9.387c0 1.695-0.463 3.355-1.327 4.801z"></path>
<path d="M16 5.625c-3.102 0-5.625 2.523-5.625 5.625 0 3.082 2.482 5.625 5.625 5.625 3.181 0 5.625-2.577 5.625-5.625 0-3.102-2.523-5.625-5.625-5.625zM16 15.012c-2.079 0-3.762-1.69-3.762-3.762 0-2.068 1.695-3.763 3.762-3.763s3.756 1.695 3.756 3.763c0 2.043-1.645 3.762-3.756 3.762z"></path>
</symbol>
<symbol id="icon-search" viewBox="0 0 32 32">
<title>search</title>
<path d="M30.938 29.137l-7.363-7.363c1.825-2.225 2.925-5.075 2.925-8.181 0-7.125-5.781-12.906-12.906-12.906-7.131 0-12.906 5.781-12.906 12.906s5.775 12.906 12.906 12.906c3.106 0 5.95-1.094 8.175-2.919l7.363 7.356c0.5 0.5 1.306 0.5 1.806 0 0.5-0.494 0.5-1.306 0-1.8zM13.594 23.931c-5.706 0-10.344-4.637-10.344-10.338s4.638-10.344 10.344-10.344c5.7 0 10.344 4.644 10.344 10.344s-4.644 10.338-10.344 10.338z"></path>
</symbol>
<symbol id="icon-tripadvisor" viewBox="0 0 32 32">
<title>tripadvisor</title>
<path d="M15.993 10.438c-2.472 0-4.328 0.622-6.183 2.477h-3.094c0 0 0 0.928 1.239 1.239-0.557 0.756-1.239 2.074-1.239 3.089 0 2.551 1.777 4.328 4.328 4.328 1.447 0 2.862-0.812 3.711-1.856l1.239 1.856 1.239-1.856c0.849 1.044 2.264 1.856 3.711 1.856 2.551 0 4.328-1.777 4.328-4.328 0-1.016-0.682-2.329-1.239-3.094 1.239-0.311 1.239-1.239 1.239-1.239h-3.094c-1.856-1.855-3.711-2.472-6.183-2.472zM15.993 11.055c3.094 0 4.949 1.855 4.949 1.855-2.477 0-4.949 3.094-4.949 6.188 0-3.094-2.472-6.183-4.95-6.183 0-0.005 1.855-1.86 4.95-1.86zM11.044 14.149c1.707 0 3.094 1.382 3.094 3.094 0 1.707-1.382 3.094-3.094 3.094s-3.094-1.382-3.094-3.094c0.005-1.707 1.387-3.094 3.094-3.094zM20.942 14.149c1.707 0 3.094 1.382 3.094 3.094 0 1.707-1.382 3.094-3.094 3.094s-3.094-1.387-3.094-3.094c0-1.707 1.382-3.094 3.094-3.094v0zM11.044 15.387c-1.025 0-1.855 0.83-1.855 1.855s0.83 1.855 1.855 1.855c1.025 0 1.855-0.83 1.855-1.855s-0.83-1.855-1.855-1.855zM20.942 15.387c-1.025 0-1.855 0.83-1.855 1.855s0.83 1.855 1.855 1.855c1.025 0 1.856-0.83 1.856-1.855s-0.83-1.855-1.856-1.855zM11.044 16.004c0.682 0 1.239 0.557 1.239 1.239s-0.557 1.239-1.239 1.239c-0.682 0-1.239-0.552-1.239-1.239 0.005-0.682 0.557-1.239 1.239-1.239zM20.942 16.004c0.682 0 1.239 0.557 1.239 1.239s-0.557 1.239-1.239 1.239c-0.682 0-1.239-0.557-1.239-1.239s0.552-1.239 1.239-1.239zM11.044 16.621c-0.343 0-0.617 0.278-0.617 0.617 0 0.343 0.278 0.617 0.617 0.617 0.343 0 0.617-0.278 0.617-0.617 0.005-0.339-0.274-0.617-0.617-0.617zM20.942 16.621c-0.343 0-0.617 0.278-0.617 0.617 0 0.343 0.278 0.617 0.617 0.617 0.343 0 0.617-0.278 0.617-0.617s-0.278-0.617-0.617-0.617z"></path>
</symbol>
</defs>
</svg>
