<?xml version="1.0" encoding="UTF-8"?>
<!DOCTYPE svg PUBLIC "-//W3C//DTD SVG 1.1//EN" "http://www.w3.org/Graphics/SVG/1.1/DTD/svg11.dtd">
<!-- Creator: CorelDRAW X7 -->
<svg xmlns="http://www.w3.org/2000/svg" xml:space="preserve" width="351px" height="248px" version="1.1" style="shape-rendering:geometricPrecision; text-rendering:geometricPrecision; image-rendering:optimizeQuality; fill-rule:evenodd; clip-rule:evenodd"
viewBox="0 0 351000 248182"
 xmlns:xlink="http://www.w3.org/1999/xlink">
 <defs>
  <style type="text/css">
   <![CDATA[
    .fil0 {fill:white}
   ]]>
  </style>
 </defs>
 <g id="Слой_x0020_1">
  <metadata id="CorelCorpID_0Corel-Layer"/>
  <path id="Bird_1_" class="fil0" d="M175424 63080c-27120,0 -47472,6818 -67824,27170l-33938 0c0,0 0,10176 13585,13585 -6105,8294 -13585,22744 -13585,33887 0,27984 19487,47472 47472,47472 15875,0 31393,-8904 40704,-20353l13586 20353 13585 -20353c9311,11449 24830,20353 40704,20353 27985,0 47472,-19488 47472,-47472 0,-11143 -7479,-25542 -13585,-33938 13585,-3409 13585,-13585 13585,-13585l-33937 0c-20353,-20352 -40705,-27119 -67824,-27119zm0 6767c33937,0 54289,20352 54289,20352 -27170,0 -54289,33938 -54289,67875 0,-33937 -27120,-67824 -54290,-67824 0,-51 20352,-20403 54290,-20403zm-54290 33937c18724,0 33937,15163 33937,33938 0,18724 -15162,33937 -33937,33937 -18775,0 -33938,-15162 -33938,-33937 51,-18724 15214,-33938 33938,-33938zm108579 0c18724,0 33938,15163 33938,33938 0,18724 -15163,33937 -33938,33937 -18775,0 -33937,-15213 -33937,-33937 0,-18724 15162,-33938 33937,-33938l0 0zm-108579 13586c-11245,0 -20352,9107 -20352,20352 0,11245 9107,20352 20352,20352 11245,0 20352,-9107 20352,-20352 0,-11245 -9107,-20352 -20352,-20352zm108579 0c-11244,0 -20352,9107 -20352,20352 0,11245 9108,20352 20352,20352 11245,0 20353,-9107 20353,-20352 0,-11245 -9108,-20352 -20353,-20352zm-108579 6767c7479,0 13585,6105 13585,13585 0,7479 -6106,13585 -13585,13585 -7480,0 -13585,-6055 -13585,-13585 51,-7480 6105,-13585 13585,-13585zm108579 0c7480,0 13585,6105 13585,13585 0,7479 -6105,13585 -13585,13585 -7479,0 -13585,-6106 -13585,-13585 0,-7480 6055,-13585 13585,-13585zm-108579 6767c-3765,0 -6767,3053 -6767,6767 0,3765 3053,6767 6767,6767 3765,0 6767,-3053 6767,-6767 51,-3714 -3002,-6767 -6767,-6767zm108579 0c-3765,0 -6767,3053 -6767,6767 0,3765 3053,6767 6767,6767 3765,0 6768,-3053 6768,-6767 0,-3714 -3053,-6767 -6768,-6767z"/>
 </g>
</svg>
